<svg data-v-0dd9719b="" version="1.0" xmlns="http://www.w3.org/2000/svg" xmlns:xlink="http://www.w3.org/1999/xlink" width="100%" height="100%" viewBox="0 0 340.000000 250.000000" preserveAspectRatio="xMidYMid meet" color-interpolation-filters="sRGB" style="margin: auto;"> <rect data-v-0dd9719b="" x="0" y="0" width="100%" height="100%" fill="#fff" fill-opacity="1" class="background"></rect> <rect data-v-0dd9719b="" x="0" y="0" width="100%" height="100%" fill="url(#watermark)" fill-opacity="1" class="watermarklayer"></rect> <g data-v-0dd9719b="" fill="#00476e" class="icon-text-wrapper icon-svg-group iconsvg" transform="translate(83.16500091552734,76.81578826904297)"><g class="iconsvg-imagesvg" transform="translate(56.834999084472656,0)"><g><rect fill="#00476e" fill-opacity="0" stroke-width="2" x="0" y="0" width="60" height="60.03842459173871" class="image-rect"></rect> <svg x="0" y="0" width="60" height="60.03842459173871" filtersec="colorsb1084050237" class="image-svg-svg primary" style="overflow: visible;"><svg xmlns="http://www.w3.org/2000/svg" viewBox="0 0 77.87000274658203 77.91999816894531"><g><g><path d="M77.86 48v29.92L48 77.86zM0 29.91V0h29.91z" fill="#00476e"></path><path fill="#8fc31f" d="M77.87.01l-.01 29.72-19.5 19.5-29.71-29.71L48.15.02 77.87.01z"></path><path fill="#c30d23" d="M49.25 58.34L29.73 77.86l-29.72.01.01-29.72 19.52-19.52 29.71 29.71z"></path></g></g></svg></svg> <!----></g></g> <g transform="translate(0,67.0384292602539)"><g data-gra="path-name" fill-rule="" class="tp-name iconsvg-namesvg"><g transform="scale(1)"><g><path d="M4.3-32.44L16.27-32.44 14.77-21.04 26.33-21.04 27.73-30.48 26.23-32.44 37.68-32.44 33.69-3.11 23.74-3.11 25.71-16.07 14.1-16.07 12.28-3.11 2.33-3.11 6.32-30.99 4.3-32.44ZM44.31-32.44L56.29-32.44 54.78-23.53 65.25-32.44 76.65-32.44 59.76-17.52 74.68-3.11 62.76-3.11 53.28-13.06 51.78-3.11 42.34-3.11 45.82-30.48 44.31-32.44Z" transform="translate(-2.3299999237060547, 32.439998626708984)"></path></g> <!----> <!----> <!----> <!----> <!----> <!----> <g data-gra="path-name-1" fill="#00476e" transform="translate(77.31999969482422,0)"><g transform="scale(1)"><path d="M3.84-32.44L15.76-32.44 12.28-8.09 31.67-8.09 31.2-3.11 5.34-3.11Q3.84-3.11 3.08-4.09 2.33-5.08 2.33-6.58L2.33-6.58 5.34-30.48 3.84-32.44ZM37.78-8.09L45.71-8.09 48.72-30.48 47.22-32.44 58.67-32.44 55.2-6.58Q54.78-5.08 53.75-4.09 52.71-3.11 51.21-3.11L51.21-3.11 34.78-3.11 35.76-10.05 37.78-8.09ZM65.3-32.44L98.68-32.44 97.18-20.52 94.17-18.55 96.66-16.53 95.16-6.58Q94.79-5.08 93.76-4.09 92.72-3.11 91.22-3.11L91.22-3.11 63.33-3.11 66.81-30.48 65.3-32.44ZM88.21-27.47L76.29-27.47 75.77-21.04 87.23-21.04 88.21-27.47ZM86.71-16.07L74.79-16.07 73.8-8.09 85.72-8.09 86.71-16.07Z" transform="translate(-2.3299999237060547, 32.439998626708984)"></path></g></g></g></g> <!----></g></g><defs v-gra="od"></defs></svg>